<svg width="14" height="14" viewBox="0 0 14 14" fill="none" xmlns="http://www.w3.org/2000/svg">
<g id="Icon" clip-path="url(#clip0_2016_42)">
<path id="Vector" d="M7 12.8333C3.77826 12.8333 1.16667 10.2218 1.16667 7C1.16667 3.77826 3.77826 1.16667 7 1.16667C10.2218 1.16667 12.8333 3.77826 12.8333 7C12.8333 10.2218 10.2218 12.8333 7 12.8333ZM7 11.6667C8.23768 11.6667 9.42467 11.175 10.2998 10.2998C11.175 9.42467 11.6667 8.23768 11.6667 7C11.6667 5.76233 11.175 4.57534 10.2998 3.70017C9.42467 2.825 8.23768 2.33334 7 2.33334C5.76233 2.33334 4.57534 2.825 3.70017 3.70017C2.825 4.57534 2.33334 5.76233 2.33334 7C2.33334 8.23768 2.825 9.42467 3.70017 10.2998C4.57534 11.175 5.76233 11.6667 7 11.6667ZM7.58334 7H9.91667V8.16667H6.41667V4.08334H7.58334V7Z" fill="#4E4B66"/>
</g>
<defs>
<clipPath id="clip0_2016_42">
<rect width="14" height="14" fill="white"/>
</clipPath>
</defs>
</svg>
